<svg width="146" height="46" viewBox="0 0 146 46" fill="none" xmlns="http://www.w3.org/2000/svg">
<rect x="0.5" width="145" height="46.0002" rx="8" fill="white"/>
<path d="M27.4527 14.4524C29.9883 11.1825 35.0118 11.1825 37.5474 14.4524C37.7884 14.7632 38.0742 15.2484 38.646 16.218L42.9878 23.5803C43.5595 24.5496 43.846 25.0341 44.0005 25.3938C45.6257 29.1783 43.1142 33.4366 38.9536 33.9514C38.5582 34.0003 37.9859 34.0002 36.8423 34.0002H28.1577C27.0146 34.0002 26.4428 34.0003 26.0474 33.9514C21.8866 33.4369 19.3743 29.1784 20.9995 25.3938C21.154 25.0341 21.4406 24.5496 22.0122 23.5803L26.354 16.218C26.9259 15.2484 27.2116 14.7632 27.4527 14.4524ZM32.4956 20.7893C30.6402 20.7893 29.1355 22.2933 29.1353 24.1487C29.1353 26.0043 30.6401 27.509 32.4956 27.509H32.6402C34.4957 27.509 35.9995 26.0042 35.9995 24.1487C35.9993 22.2934 34.4956 20.7893 32.6402 20.7893H32.4956Z" fill="#272727" fill-opacity="0.9"/>
<path d="M58.516 18.656C59.172 18.672 59.78 18.688 60.212 18.688H69.012C69.412 18.688 70.02 18.688 70.596 18.656C70.564 19.136 70.564 19.728 70.564 20.208V28.048C70.564 28.672 70.596 30.208 70.596 30.272H68.388C68.388 30.24 68.404 29.872 68.404 29.408H60.692C60.708 29.856 60.708 30.224 60.708 30.272H58.5C58.5 30.192 58.548 28.8 58.548 28.032V20.208C58.548 19.76 58.548 19.104 58.516 18.656ZM60.692 20.72V27.36H68.42V20.72H60.692ZM85.214 16.896C85.614 17.472 86.19 18.496 86.478 19.088L85.294 19.584L86.654 20.416C86.478 20.72 86.254 21.168 86.126 21.568C85.694 22.992 84.782 25.12 83.326 26.896C81.806 28.768 79.886 30.224 76.878 31.424L74.99 29.728C78.254 28.752 80.03 27.36 81.438 25.76C82.526 24.528 83.454 22.592 83.71 21.408H79.214C78.142 22.8 76.75 24.208 75.166 25.28L73.374 23.936C76.174 22.24 77.582 20.16 78.366 18.784C78.606 18.4 78.942 17.664 79.086 17.12L81.438 17.888C81.054 18.448 80.638 19.168 80.462 19.52C80.446 19.552 80.43 19.568 80.414 19.6H83.614C84.11 19.6 84.654 19.52 85.006 19.408L85.118 19.472C84.798 18.832 84.35 17.984 83.95 17.408L85.214 16.896ZM87.102 16.176C87.518 16.768 88.11 17.792 88.398 18.352L87.134 18.896C86.798 18.224 86.286 17.296 85.838 16.688L87.102 16.176ZM89.992 23.776C92.856 23.04 95.208 22 96.984 20.912C98.632 19.888 100.456 18.288 101.496 17.024L103.224 18.672C102.008 19.872 100.472 21.12 98.92 22.144V28.608C98.92 29.312 98.952 30.304 99.064 30.704H96.536C96.6 30.32 96.648 29.312 96.648 28.608V23.488C95 24.352 92.968 25.216 91 25.792L89.992 23.776ZM109.106 17.84C110.226 18.592 112.306 20.256 113.234 21.232L111.602 22.896C110.77 22 108.77 20.256 107.602 19.44L109.106 17.84ZM107.106 28.496C109.602 28.144 111.682 27.328 113.234 26.4C115.97 24.784 118.05 22.336 119.058 20.176L120.306 22.432C119.09 24.592 116.962 26.8 114.386 28.352C112.77 29.328 110.706 30.224 108.45 30.608L107.106 28.496Z" fill="#272727" fill-opacity="0.9"/>
</svg>
