<svg width="162" height="40" viewBox="0 0 162 40" fill="none" xmlns="http://www.w3.org/2000/svg">
<rect y="0.132812" width="162" height="39" rx="8" fill="white" fill-opacity="0.14"/>
<path d="M29.488 14.3728C29.28 14.7408 28.976 15.4448 28.816 15.8128C28.336 17.0768 27.616 18.6928 26.672 20.1648C28.08 21.3168 29.424 22.5488 30.512 23.7008L28.864 25.5248C27.744 24.2128 26.592 23.0928 25.312 21.9888C23.904 23.6848 22.064 25.4608 19.36 26.9328L17.568 25.3168C20.176 24.0528 22.064 22.5008 23.648 20.5968C22.496 19.6848 20.96 18.5488 19.328 17.5568L20.688 15.9248C21.968 16.7088 23.648 17.8608 24.944 18.8208C25.76 17.5408 26.304 16.2768 26.72 15.0128C26.864 14.5968 27.04 13.9568 27.104 13.5408L29.488 14.3728ZM33.722 18.7248C34.298 18.7728 35.466 18.8208 36.298 18.8208H44.89C45.642 18.8208 46.346 18.7568 46.762 18.7248V21.2368C46.378 21.2208 45.562 21.1568 44.89 21.1568H36.298C35.386 21.1568 34.314 21.1888 33.722 21.2368V18.7248ZM56.548 25.7808C56.612 25.4768 56.676 25.0288 56.676 24.5968V15.2688C56.676 14.5488 56.564 13.9408 56.548 13.8928H58.932C58.916 13.9408 58.82 14.5648 58.82 15.2848V23.6528C60.116 23.0928 61.7 21.8288 62.772 20.2768L64.004 22.0368C62.676 23.7648 60.372 25.4928 58.58 26.4048C58.228 26.5968 58.036 26.7568 57.892 26.8848L56.548 25.7808ZM49.14 25.5408C50.548 24.5488 51.412 23.0768 51.86 21.7168C52.308 20.3408 52.324 17.3168 52.324 15.3808C52.324 14.7408 52.276 14.3088 52.18 13.9088H54.532C54.516 13.9888 54.42 14.6928 54.42 15.3648C54.42 17.2528 54.372 20.6288 53.94 22.2448C53.46 24.0528 52.452 25.6208 51.092 26.8368L49.14 25.5408ZM65.854 15.1568C66.494 15.1408 67.118 15.1088 67.422 15.0768C68.766 14.9648 71.406 14.7248 74.334 14.4848C75.982 14.3408 77.726 14.2448 78.862 14.1968L78.878 16.2448C78.014 16.2608 76.638 16.2608 75.79 16.4688C73.854 16.9808 72.398 19.0448 72.398 20.9488C72.398 23.5888 74.862 24.5328 77.582 24.6768L76.83 26.8688C73.47 26.6448 70.302 24.8528 70.302 21.3808C70.302 19.0768 71.598 17.2528 72.686 16.4368C71.182 16.5968 67.918 16.9488 66.062 17.3488L65.854 15.1568ZM76.59 17.8128C76.99 18.3888 77.566 19.3648 77.87 19.9888L76.654 20.5328C76.254 19.6528 75.918 19.0288 75.406 18.3088L76.59 17.8128ZM78.382 17.0768C78.782 17.6368 79.39 18.5808 79.726 19.2048L78.526 19.7808C78.094 18.9168 77.726 18.3248 77.214 17.6208L78.382 17.0768ZM88.328 20.0528H89.944V19.2528H88.328V20.0528ZM88.328 17.2528V18.0208H89.944V17.2528H88.328ZM93.464 17.2528H91.8V18.0208H93.464V17.2528ZM93.464 20.0528V19.2528H91.8V20.0528H93.464ZM89.944 25.1088V23.6208H85.768V22.0688H89.944V21.3648H86.6V15.9248H89.944V15.2688H85.96V13.7328H89.944V12.5968H91.8V13.7328H95.992V15.2688H91.8V15.9248H95.288V21.3648H91.8V22.0688H96.184V23.6208H91.8V25.1088H89.944ZM85.688 15.5248L84.12 16.7248C83.672 15.9408 82.616 14.8368 81.72 14.0688L83.176 12.9808C84.072 13.7008 85.176 14.7568 85.688 15.5248ZM85.256 18.7888V23.8928C85.88 24.9648 87 25.4128 88.632 25.4768C90.552 25.5568 94.328 25.5088 96.536 25.3328C96.312 25.7808 96.04 26.6608 95.944 27.1888C93.96 27.2848 90.568 27.3168 88.616 27.2368C86.712 27.1568 85.432 26.6928 84.472 25.4608C83.832 26.0848 83.176 26.6928 82.36 27.3808L81.464 25.4928C82.088 25.0928 82.808 24.5648 83.448 24.0208V20.5328H81.656V18.7888H85.256ZM98.386 21.9408L99.954 22.2128C99.794 23.7168 99.458 25.3168 98.994 26.3408C98.658 26.1328 97.954 25.7968 97.538 25.6528C98.002 24.7088 98.258 23.2848 98.386 21.9408ZM101.858 22.2288L103.202 21.8128C103.602 22.7248 104.018 23.8928 104.194 24.6928L102.786 25.2048C102.642 24.4048 102.226 23.1728 101.858 22.2288ZM105.762 21.3968H110.978C110.034 20.9488 109.122 20.3888 108.274 19.7328C107.49 20.3888 106.642 20.9488 105.762 21.3968ZM106.418 25.2368H109.906V23.0288H106.418V25.2368ZM106.818 15.6208L106.706 15.7968C107.106 16.3728 107.618 16.9328 108.21 17.4608C108.738 16.9008 109.202 16.2768 109.586 15.6208H106.818ZM110.85 13.9248L112.034 14.5648C111.442 16.0848 110.594 17.4128 109.57 18.5168C110.626 19.2368 111.81 19.8288 113.01 20.2288C112.594 20.5648 112.066 21.2848 111.794 21.7488L111.762 21.7328V27.4608H109.906V26.8688H106.418V27.5248H104.658V21.9088L104.386 22.0208C104.29 21.8128 104.098 21.5248 103.89 21.2528L102.834 21.7328C102.786 21.4928 102.722 21.2208 102.642 20.9328L101.826 20.9968V27.5408H100.178V21.1088L97.858 21.2528L97.698 19.6048L98.85 19.5568C99.09 19.2528 99.346 18.9008 99.602 18.5328C99.138 17.8448 98.37 16.9968 97.714 16.3568L98.626 15.0608C98.738 15.1568 98.866 15.2688 98.994 15.3808C99.442 14.5008 99.89 13.4448 100.162 12.5968L101.81 13.2048C101.234 14.2928 100.594 15.5248 100.018 16.4208C100.226 16.6448 100.402 16.8688 100.562 17.0608C101.106 16.1648 101.618 15.2528 101.986 14.4688L103.538 15.1888C102.658 16.5808 101.554 18.1968 100.546 19.4928L102.082 19.4288C101.906 19.0288 101.714 18.6288 101.522 18.2768L102.786 17.7488C103.218 18.5328 103.666 19.4608 103.938 20.2608C105.01 19.8288 106.034 19.2688 106.93 18.5808C106.466 18.1008 106.018 17.6208 105.618 17.0928C105.218 17.5248 104.77 17.9408 104.29 18.3248C104.018 17.9408 103.41 17.3328 103.01 17.0928C104.77 15.7968 105.922 14.0848 106.498 12.5968L108.354 12.8848C108.194 13.2528 108.018 13.6368 107.81 14.0048H110.562L110.85 13.9248ZM123.948 13.2368C123.916 13.4928 123.852 14.3568 123.836 14.6128C123.836 14.7408 123.836 14.9168 123.82 15.1088C125.436 15.1088 127.628 15.0768 128.46 15.0928L128.444 16.9808C127.484 16.9328 125.996 16.9008 123.82 16.9008C123.82 17.7168 123.836 18.5968 123.836 19.3008C124.22 19.9088 124.412 20.6608 124.412 21.4928C124.412 23.5728 123.196 26.2288 119.292 27.3168L117.58 25.6208C119.196 25.2848 120.604 24.7568 121.484 23.7968C121.26 23.8448 121.02 23.8768 120.764 23.8768C119.532 23.8768 118.012 22.8848 118.012 20.9328C118.012 19.1248 119.468 17.9408 121.212 17.9408C121.436 17.9408 121.644 17.9568 121.852 17.9888C121.852 17.6368 121.852 17.2688 121.836 16.9168C119.42 16.9488 116.924 17.0448 114.956 17.1568L114.908 15.2208C116.732 15.2208 119.644 15.1568 121.82 15.1248C121.804 14.9168 121.804 14.7568 121.788 14.6288C121.74 13.9728 121.676 13.4288 121.628 13.2368H123.948ZM119.932 20.9008C119.932 21.6368 120.524 22.1008 121.164 22.1008C121.836 22.1008 122.428 21.5888 122.204 20.1808C121.98 19.8128 121.596 19.6208 121.164 19.6208C120.54 19.6208 119.932 20.0528 119.932 20.9008ZM135.99 24.2448C135.99 24.8368 136.646 25.2368 137.606 25.2368C137.942 25.2368 138.246 25.2208 138.534 25.1888C138.438 24.1488 137.846 23.4768 136.982 23.4768C136.374 23.4768 135.99 23.8448 135.99 24.2448ZM133.27 13.9408C133.718 14.0048 134.278 14.0208 134.726 14.0208C135.574 14.0208 138.998 13.9568 139.91 13.8768C140.566 13.8128 140.934 13.7648 141.126 13.7008L142.166 15.1248C141.798 15.3648 141.414 15.5888 141.046 15.8608C140.182 16.4688 138.502 17.8768 137.494 18.6768C138.022 18.5488 138.502 18.5008 139.014 18.5008C141.734 18.5008 143.798 20.1968 143.798 22.5328C143.798 25.0608 141.878 27.0608 138.006 27.0608C135.782 27.0608 134.102 26.0368 134.102 24.4368C134.102 23.1408 135.27 21.9408 136.966 21.9408C138.95 21.9408 140.15 23.1568 140.374 24.6768C141.254 24.2128 141.702 23.4768 141.702 22.5008C141.702 21.0608 140.262 20.0848 138.374 20.0848C135.926 20.0848 134.326 21.3808 132.614 23.3328L131.158 21.8288C132.294 20.9168 134.23 19.2848 135.174 18.5008C136.07 17.7648 137.734 16.4208 138.518 15.7328C137.702 15.7488 135.494 15.8448 134.646 15.8928C134.214 15.9248 133.702 15.9728 133.334 16.0208L133.27 13.9408Z" fill="white"/>
</svg>
