<svg width="72" height="72" viewBox="0 0 72 72" fill="none" xmlns="http://www.w3.org/2000/svg">
<rect width="72" height="72" rx="36" fill="#FF5227"/>
<mask id="mask0_480_4752" style="mask-type:alpha" maskUnits="userSpaceOnUse" x="24" y="24" width="24" height="24">
<rect x="24" y="24" width="24" height="24" fill="#D9D9D9"/>
</mask>
<g mask="url(#mask0_480_4752)">
<path d="M33.5 40C31.6833 40 30.1458 39.3708 28.8875 38.1125C27.6292 36.8542 27 35.3167 27 33.5C27 31.6833 27.6292 30.1458 28.8875 28.8875C30.1458 27.6292 31.6833 27 33.5 27C35.3167 27 36.8542 27.6292 38.1125 28.8875C39.3708 30.1458 40 31.6833 40 33.5C40 34.2333 39.8833 34.925 39.65 35.575C39.4167 36.225 39.1 36.8 38.7 37.3L44.3 42.9C44.4833 43.0833 44.575 43.3167 44.575 43.6C44.575 43.8833 44.4833 44.1167 44.3 44.3C44.1167 44.4833 43.8833 44.575 43.6 44.575C43.3167 44.575 43.0833 44.4833 42.9 44.3L37.3 38.7C36.8 39.1 36.225 39.4167 35.575 39.65C34.925 39.8833 34.2333 40 33.5 40ZM33.5 38C34.75 38 35.8125 37.5625 36.6875 36.6875C37.5625 35.8125 38 34.75 38 33.5C38 32.25 37.5625 31.1875 36.6875 30.3125C35.8125 29.4375 34.75 29 33.5 29C32.25 29 31.1875 29.4375 30.3125 30.3125C29.4375 31.1875 29 32.25 29 33.5C29 34.75 29.4375 35.8125 30.3125 36.6875C31.1875 37.5625 32.25 38 33.5 38Z" fill="white"/>
</g>
</svg>
